<svg xmlns="http://www.w3.org/2000/svg" version="1.1" width="2160px" height="2160px" style="shape-rendering:geometricPrecision; text-rendering:geometricPrecision; image-rendering:optimizeQuality; fill-rule:evenodd; clip-rule:evenodd" xmlns:xlink="http://www.w3.org/1999/xlink">
    <g><path style="opacity:1" fill="#55bbeb" d="M 1033.5,-0.5 C 1064.17,-0.5 1094.83,-0.5 1125.5,-0.5C 1420.54,16.5858 1669.37,131.586 1872,344.5C 2049.04,539.363 2144.87,769.03 2159.5,1033.5C 2159.5,1064.17 2159.5,1094.83 2159.5,1125.5C 2142.41,1420.54 2027.41,1669.37 1814.5,1872C 1619.64,2049.04 1389.97,2144.87 1125.5,2159.5C 1094.83,2159.5 1064.17,2159.5 1033.5,2159.5C 738.46,2142.41 489.626,2027.41 287,1814.5C 109.962,1619.64 14.1291,1389.97 -0.5,1125.5C -0.5,1094.83 -0.5,1064.17 -0.5,1033.5C 16.5858,738.46 131.586,489.626 344.5,287C 539.363,109.962 769.03,14.1291 1033.5,-0.5 Z"/></g>
    <g><path style="opacity:1" fill="#fefefe" d="M 1052.5,713.5 C 1053.67,712.486 1054.34,711.153 1054.5,709.5C 1060.57,702.534 1065.07,694.534 1068,685.5C 1073.6,666.571 1075.93,647.237 1075,627.5C 1084.31,565.365 1117.48,521.199 1174.5,495C 1230.7,472.258 1285.7,474.924 1339.5,503C 1408.35,545.846 1434.18,607.013 1417,686.5C 1397.22,743.614 1358.38,781.114 1300.5,799C 1271.2,805.448 1241.53,808.448 1211.5,808C 1192.27,810.411 1174.27,816.411 1157.5,826C 1116.74,851.667 1093.24,888.5 1087,936.5C 1085.1,946.912 1084.27,957.412 1084.5,968C 1085.02,986.166 1085.52,1004.33 1086,1022.5C 1088.72,1057.1 1102.55,1086.26 1127.5,1110C 1140.12,1119.62 1152.46,1129.62 1164.5,1140C 1192.58,1159.26 1223.58,1171.26 1257.5,1176C 1269.81,1177.62 1282.14,1178.95 1294.5,1180C 1348.52,1176.33 1400.52,1184.67 1450.5,1205C 1530.73,1242.23 1580.23,1304.07 1599,1390.5C 1610.53,1497.6 1571.36,1580.44 1481.5,1639C 1412.41,1678.85 1339.08,1689.18 1261.5,1670C 1180.2,1647.02 1122.03,1597.19 1087,1520.5C 1077.6,1497.76 1071.93,1474.1 1070,1449.5C 1071.06,1420.19 1067.39,1391.52 1059,1363.5C 1051.14,1340.59 1037.97,1321.42 1019.5,1306C 1012.32,1300.57 1005.32,1294.91 998.5,1289C 968.206,1268.01 934.539,1255.67 897.5,1252C 862.567,1249.08 827.567,1247.74 792.5,1248C 710.033,1238.04 644.867,1199.54 597,1132.5C 558.214,1071.34 548.214,1005.67 567,935.5C 597.969,847.867 658.136,791.033 747.5,765C 784.019,755.251 821.019,752.918 858.5,758C 874.755,761.132 891.088,763.798 907.5,766C 936.652,769.3 964.986,765.966 992.5,756C 1003.62,751.276 1013.95,745.276 1023.5,738C 1033.63,730.374 1043.29,722.207 1052.5,713.5 Z"/></g>
    <g><path style="opacity:1" fill="#b2e0f6" d="M 1054.5,709.5 C 1054.34,711.153 1053.67,712.486 1052.5,713.5C 1052.23,711.62 1052.9,710.287 1054.5,709.5 Z"/></g>
</svg>
